<?xml version="1.0" encoding="UTF-8" standalone="no"?>
<svg
   xmlns:dc="http://purl.org/dc/elements/1.1/"
   xmlns:cc="http://creativecommons.org/ns#"
   xmlns:rdf="http://www.w3.org/1999/02/22-rdf-syntax-ns#"
   xmlns:svg="http://www.w3.org/2000/svg"
   xmlns="http://www.w3.org/2000/svg"
   width="168.58691pt"
   height="244.16699pt"
   viewBox="0 0 168.58691 244.16699"
   xml:space="preserve"
   id="svg2"
   version="1.1"><metadata
   id="metadata43"><rdf:RDF><cc:Work
       rdf:about=""><dc:format>image/svg+xml</dc:format><dc:type
         rdf:resource="http://purl.org/dc/dcmitype/StillImage" /><dc:title /></cc:Work></rdf:RDF></metadata><defs
   id="defs41" />
	<g
   id="Layer_x0020_1"
   style="clip-rule:nonzero;fill-rule:nonzero;stroke:#000000;stroke-miterlimit:4"
   transform="translate(0.75,0.75)">
		<path
   style="fill:#ffffff;stroke-width:2"
   d="m 166.83691,235.54785 c 0,3.77735 -3.08691,6.86914 -6.87109,6.86914 H 7.1108398 C 3.3359375,242.41699 0.25,239.3252 0.25,235.54785 V 7.1201172 C 0.25,3.3427734 3.3359375,0.25 7.1108398,0.25 H 159.96582 c 3.78418,0 6.87109,3.0927734 6.87109,6.8701172 z"
   id="path5" />
		<g
   style="stroke:none"
   id="g7">
			<g
   id="g9">
				
			</g>
			
		</g>
		<g
   id="g15">
			
		</g>
		<g
   id="g19">
			
		</g>
		<g
   style="stroke:none"
   id="g23">
			<g
   id="g25">
				
			</g>
			
		</g>
		<g
   style="stroke:none"
   id="g31">
			<g
   id="g33">
				
			</g>
			
		</g>
	</g>
<g
   aria-label="1"
   id="text3788"
   style="font-style:normal;font-weight:normal;line-height:0%;font-family:'Bitstream Vera Sans';letter-spacing:0px;word-spacing:0px;fill:#000000;fill-opacity:1;stroke:none"
   transform="translate(0.75,0.75)"><path
     d="M 11.965471,28.342009 H 9.1529711 V 10.420134 q -1.015625,0.96875 -2.671875,1.9375 -1.640625,0.96875 -2.953125,1.453125 v -2.71875 q 2.359375,-1.1093754 4.125,-2.6875004 1.765625,-1.578125 2.4999999,-3.0625 h 1.8125 z"
     style="font-style:normal;font-variant:normal;font-weight:normal;font-stretch:normal;font-size:32px;line-height:1.25;font-family:Arial;-inkscape-font-specification:Arial"
     id="path48" /></g>




<g
   transform="matrix(1.5085945,0,0,1.3793253,17.679041,45.815897)"
   id="layer1-7"><path
     id="sl"
     d="M 7.989,3.103 C 7.747,-0.954 0.242,-8.59 0,-10.5 c -0.242,1.909 -7.747,9.545 -7.989,13.603 -0.169,2.868 1.695,4.057 3.39,4.057 1.8351685,-0.021581 3.3508701,-2.8006944 3.873,-3.341 0.242,0.716 -1.603,6.682 -2.179,6.682 H 2.906 C 2.33,10.501 0.485,4.535 0.727,3.819 1.1841472,4.3152961 2.5241276,7.0768295 4.601,7.16 6.295,7.159 8.158,5.971 7.989,3.103 Z"
     style="fill:#000000" /></g>
<g
   transform="matrix(2.6486789,0,0,2.4217176,53.76089,32.515995)"
   id="layer1-7-88"><path
     id="sl-4"
     d="M 7.989,3.103 C 7.747,-0.954 0.242,-8.59 0,-10.5 c -0.242,1.909 -7.747,9.545 -7.989,13.603 -0.169,2.868 1.695,4.057 3.39,4.057 1.8351685,-0.021581 3.3508701,-2.8006944 3.873,-3.341 0.242,0.716 -1.603,6.682 -2.179,6.682 H 2.906 C 2.33,10.501 0.485,4.535 0.727,3.819 1.1841472,4.3152961 2.5241276,7.0768295 4.601,7.16 6.295,7.159 8.158,5.971 7.989,3.103 Z"
     style="fill:#000000" /></g>


<g
   transform="matrix(-1.5085945,0,0,-1.3793253,150.97511,198.79408)"
   id="layer1-7-3"><path
     id="sl-1"
     d="M 7.989,3.103 C 7.747,-0.954 0.242,-8.59 0,-10.5 c -0.242,1.909 -7.747,9.545 -7.989,13.603 -0.169,2.868 1.695,4.057 3.39,4.057 1.8351685,-0.021581 3.3508701,-2.8006944 3.873,-3.341 0.242,0.716 -1.603,6.682 -2.179,6.682 H 2.906 C 2.33,10.501 0.485,4.535 0.727,3.819 1.1841472,4.3152961 2.5241276,7.0768295 4.601,7.16 6.295,7.159 8.158,5.971 7.989,3.103 Z"
     style="fill:#000000" /></g><g
   transform="matrix(2.6486789,0,0,2.4217176,54.089713,95.448498)"
   id="layer1-7-88-8"><path
     id="sl-4-8"
     d="M 7.989,3.103 C 7.747,-0.954 0.242,-8.59 0,-10.5 c -0.242,1.909 -7.747,9.545 -7.989,13.603 -0.169,2.868 1.695,4.057 3.39,4.057 1.8351685,-0.021581 3.3508701,-2.8006944 3.873,-3.341 0.242,0.716 -1.603,6.682 -2.179,6.682 H 2.906 C 2.33,10.501 0.485,4.535 0.727,3.819 1.1841472,4.3152961 2.5241276,7.0768295 4.601,7.16 6.295,7.159 8.158,5.971 7.989,3.103 Z"
     style="fill:#000000" /></g><g
   transform="matrix(-2.6486789,0,0,-2.4217176,54.539261,213.41394)"
   id="layer1-7-88-4"><path
     id="sl-4-3"
     d="M 7.989,3.103 C 7.747,-0.954 0.242,-8.59 0,-10.5 c -0.242,1.909 -7.747,9.545 -7.989,13.603 -0.169,2.868 1.695,4.057 3.39,4.057 1.8351685,-0.021581 3.3508701,-2.8006944 3.873,-3.341 0.242,0.716 -1.603,6.682 -2.179,6.682 H 2.906 C 2.33,10.501 0.485,4.535 0.727,3.819 1.1841472,4.3152961 2.5241276,7.0768295 4.601,7.16 6.295,7.159 8.158,5.971 7.989,3.103 Z"
     style="fill:#000000" /></g><g
   transform="matrix(-2.6486789,0,0,-2.4217176,54.210438,152.08144)"
   id="layer1-7-88-8-1"><path
     id="sl-4-8-4"
     d="M 7.989,3.103 C 7.747,-0.954 0.242,-8.59 0,-10.5 c -0.242,1.909 -7.747,9.545 -7.989,13.603 -0.169,2.868 1.695,4.057 3.39,4.057 1.8351685,-0.021581 3.3508701,-2.8006944 3.873,-3.341 0.242,0.716 -1.603,6.682 -2.179,6.682 H 2.906 C 2.33,10.501 0.485,4.535 0.727,3.819 1.1841472,4.3152961 2.5241276,7.0768295 4.601,7.16 6.295,7.159 8.158,5.971 7.989,3.103 Z"
     style="fill:#000000" /></g><g
   transform="matrix(2.6486789,0,0,2.4217176,115.72822,32.328035)"
   id="layer1-7-88-9"><path
     id="sl-4-2"
     d="M 7.989,3.103 C 7.747,-0.954 0.242,-8.59 0,-10.5 c -0.242,1.909 -7.747,9.545 -7.989,13.603 -0.169,2.868 1.695,4.057 3.39,4.057 1.8351685,-0.021581 3.3508701,-2.8006944 3.873,-3.341 0.242,0.716 -1.603,6.682 -2.179,6.682 H 2.906 C 2.33,10.501 0.485,4.535 0.727,3.819 1.1841472,4.3152961 2.5241276,7.0768295 4.601,7.16 6.295,7.159 8.158,5.971 7.989,3.103 Z"
     style="fill:#000000" /></g><g
   transform="matrix(2.6486789,0,0,2.4217176,116.05704,95.260535)"
   id="layer1-7-88-8-0"><path
     id="sl-4-8-6"
     d="M 7.989,3.103 C 7.747,-0.954 0.242,-8.59 0,-10.5 c -0.242,1.909 -7.747,9.545 -7.989,13.603 -0.169,2.868 1.695,4.057 3.39,4.057 1.8351685,-0.021581 3.3508701,-2.8006944 3.873,-3.341 0.242,0.716 -1.603,6.682 -2.179,6.682 H 2.906 C 2.33,10.501 0.485,4.535 0.727,3.819 1.1841472,4.3152961 2.5241276,7.0768295 4.601,7.16 6.295,7.159 8.158,5.971 7.989,3.103 Z"
     style="fill:#000000" /></g><g
   transform="matrix(-2.6486789,0,0,-2.4217176,116.50659,213.22597)"
   id="layer1-7-88-4-8"><path
     id="sl-4-3-9"
     d="M 7.989,3.103 C 7.747,-0.954 0.242,-8.59 0,-10.5 c -0.242,1.909 -7.747,9.545 -7.989,13.603 -0.169,2.868 1.695,4.057 3.39,4.057 1.8351685,-0.021581 3.3508701,-2.8006944 3.873,-3.341 0.242,0.716 -1.603,6.682 -2.179,6.682 H 2.906 C 2.33,10.501 0.485,4.535 0.727,3.819 1.1841472,4.3152961 2.5241276,7.0768295 4.601,7.16 6.295,7.159 8.158,5.971 7.989,3.103 Z"
     style="fill:#000000" /></g><g
   transform="matrix(-2.6486789,0,0,-2.4217176,116.17777,151.89347)"
   id="layer1-7-88-8-1-2"><path
     id="sl-4-8-4-6"
     d="M 7.989,3.103 C 7.747,-0.954 0.242,-8.59 0,-10.5 c -0.242,1.909 -7.747,9.545 -7.989,13.603 -0.169,2.868 1.695,4.057 3.39,4.057 1.8351685,-0.021581 3.3508701,-2.8006944 3.873,-3.341 0.242,0.716 -1.603,6.682 -2.179,6.682 H 2.906 C 2.33,10.501 0.485,4.535 0.727,3.819 1.1841472,4.3152961 2.5241276,7.0768295 4.601,7.16 6.295,7.159 8.158,5.971 7.989,3.103 Z"
     style="fill:#000000" /></g><g
   transform="matrix(2.6486789,0,0,2.4217176,84.902135,64.921198)"
   id="layer1-7-88-6"><path
     id="sl-4-4"
     d="M 7.989,3.103 C 7.747,-0.954 0.242,-8.59 0,-10.5 c -0.242,1.909 -7.747,9.545 -7.989,13.603 -0.169,2.868 1.695,4.057 3.39,4.057 1.8351685,-0.021581 3.3508701,-2.8006944 3.873,-3.341 0.242,0.716 -1.603,6.682 -2.179,6.682 H 2.906 C 2.33,10.501 0.485,4.535 0.727,3.819 1.1841472,4.3152961 2.5241276,7.0768295 4.601,7.16 6.295,7.159 8.158,5.971 7.989,3.103 Z"
     style="fill:#000000" /></g><g
   transform="matrix(-2.6486789,0,0,-2.4217176,85.230868,181.29025)"
   id="layer1-7-88-6-6"><path
     id="sl-4-4-8"
     d="M 7.989,3.103 C 7.747,-0.954 0.242,-8.59 0,-10.5 c -0.242,1.909 -7.747,9.545 -7.989,13.603 -0.169,2.868 1.695,4.057 3.39,4.057 1.8351685,-0.021581 3.3508701,-2.8006944 3.873,-3.341 0.242,0.716 -1.603,6.682 -2.179,6.682 H 2.906 C 2.33,10.501 0.485,4.535 0.727,3.819 1.1841472,4.3152961 2.5241276,7.0768295 4.601,7.16 6.295,7.159 8.158,5.971 7.989,3.103 Z"
     style="fill:#000000" /></g><g
   aria-label="0"
   id="text3038"
   style="font-style:normal;font-weight:normal;line-height:0%;font-family:'Bitstream Vera Sans';letter-spacing:0px;word-spacing:0px;fill:#000000;fill-opacity:1;stroke:none"
   transform="translate(0.75,0.75)"><path
     d="m 22.378084,7.4207172 q -2.4375,0 -3.671875,2.40625 -1.21875,2.3906248 -1.21875,7.2031248 0,4.796875 1.21875,7.203125 1.234375,2.390625 3.671875,2.390625 2.453125,0 3.671875,-2.390625 1.234375,-2.40625 1.234375,-7.203125 0,-4.8125 -1.234375,-7.2031248 -1.21875,-2.40625 -3.671875,-2.40625 z m 0,-2.5 q 3.921875,0 5.984375,3.109375 2.078125,3.0937498 2.078125,8.9999998 0,5.890625 -2.078125,9 -2.0625,3.09375 -5.984375,3.09375 -3.921875,0 -6,-3.09375 -2.0625,-3.109375 -2.0625,-9 0,-5.90625 2.0625,-8.9999998 2.078125,-3.109375 6,-3.109375 z"
     style="font-size:32px;line-height:1.25"
     id="path51" /></g>
<g
   aria-label="1"
   transform="rotate(180,0.375,0.375)"
   id="text3788-4"
   style="font-style:normal;font-weight:normal;line-height:0%;font-family:'Bitstream Vera Sans';letter-spacing:0px;word-spacing:0px;fill:#000000;fill-opacity:1;stroke:none"><path
     d="m -154.91479,-214.58258 h -2.8125 v -17.92188 q -1.01563,0.96875 -2.67188,1.9375 -1.64062,0.96875 -2.95312,1.45313 v -2.71875 q 2.35937,-1.10938 4.125,-2.6875 1.76562,-1.57813 2.5,-3.0625 h 1.8125 z"
     style="font-style:normal;font-variant:normal;font-weight:normal;font-stretch:normal;font-size:32px;line-height:1.25;font-family:Arial;-inkscape-font-specification:Arial"
     id="path54" /></g>
<g
   aria-label="0"
   transform="rotate(180,0.375,0.375)"
   id="text3038-1"
   style="font-style:normal;font-weight:normal;line-height:0%;font-family:'Bitstream Vera Sans';letter-spacing:0px;word-spacing:0px;fill:#000000;fill-opacity:1;stroke:none"><path
     d="m -144.50218,-235.50388 q -2.4375,0 -3.67188,2.40625 -1.21875,2.39063 -1.21875,7.20313 0,4.79687 1.21875,7.20312 1.23438,2.39063 3.67188,2.39063 2.45312,0 3.67187,-2.39063 1.23438,-2.40625 1.23438,-7.20312 0,-4.8125 -1.23438,-7.20313 -1.21875,-2.40625 -3.67187,-2.40625 z m 0,-2.5 q 3.92187,0 5.98437,3.10938 2.07813,3.09375 2.07813,9 0,5.89062 -2.07813,9 -2.0625,3.09375 -5.98437,3.09375 -3.92188,0 -6,-3.09375 -2.0625,-3.10938 -2.0625,-9 0,-5.90625 2.0625,-9 2.07812,-3.10938 6,-3.10938 z"
     style="font-size:32px;line-height:1.25"
     id="path57" /></g>
</svg>
