<?xml version="1.0" encoding="UTF-8" standalone="no"?>
<svg
   xmlns:dc="http://purl.org/dc/elements/1.1/"
   xmlns:cc="http://creativecommons.org/ns#"
   xmlns:rdf="http://www.w3.org/1999/02/22-rdf-syntax-ns#"
   xmlns:svg="http://www.w3.org/2000/svg"
   xmlns="http://www.w3.org/2000/svg"
   width="168.58691pt"
   height="244.16699pt"
   viewBox="0 0 168.58691 244.16699"
   xml:space="preserve"
   id="svg2"
   version="1.1"><metadata
   id="metadata43"><rdf:RDF><cc:Work
       rdf:about=""><dc:format>image/svg+xml</dc:format><dc:type
         rdf:resource="http://purl.org/dc/dcmitype/StillImage" /><dc:title /></cc:Work></rdf:RDF></metadata><defs
   id="defs41" />
	<g
   id="Layer_x0020_1"
   style="clip-rule:nonzero;fill-rule:nonzero;stroke:#000000;stroke-miterlimit:4"
   transform="translate(0.75,0.75)">
		<path
   style="fill:#ffffff;stroke-width:2"
   d="m 166.83691,235.54785 c 0,3.77735 -3.08691,6.86914 -6.87109,6.86914 H 7.1108398 C 3.3359375,242.41699 0.25,239.3252 0.25,235.54785 V 7.1201172 C 0.25,3.3427734 3.3359375,0.25 7.1108398,0.25 H 159.96582 c 3.78418,0 6.87109,3.0927734 6.87109,6.8701172 z"
   id="path5" />
		<g
   style="stroke:none"
   id="g7">
			<g
   id="g9">
				
			</g>
			
		</g>
		<g
   id="g15">
			
		</g>
		<g
   id="g19">
			
		</g>
		<g
   style="stroke:none"
   id="g23">
			<g
   id="g25">
				
			</g>
			
		</g>
		<g
   style="stroke:none"
   id="g31">
			<g
   id="g33">
				
			</g>
			
		</g>
	</g>
<g
   aria-label="4"
   id="text3788"
   style="font-style:normal;font-weight:normal;line-height:0%;font-family:'Bitstream Vera Sans';letter-spacing:0px;word-spacing:0px;fill:#000000;fill-opacity:1;stroke:none"
   transform="translate(0.75,0.75)"><path
     d="M 18.890451,28.013288 V 22.528913 H 8.9529514 V 19.950788 L 19.406076,5.1070385 h 2.296875 V 19.950788 h 3.09375 v 2.578125 h -3.09375 v 5.484375 z m 0,-8.0625 V 9.6226635 L 11.718576,19.950788 Z"
     style="font-style:normal;font-variant:normal;font-weight:normal;font-stretch:normal;font-size:32px;line-height:1.25;font-family:Arial;-inkscape-font-specification:Arial"
     id="path32" /></g>



<g
   transform="matrix(1.5085945,0,0,1.3793253,17.679041,45.815897)"
   id="layer1-7"><path
     id="sl"
     d="M 7.989,3.103 C 7.747,-0.954 0.242,-8.59 0,-10.5 c -0.242,1.909 -7.747,9.545 -7.989,13.603 -0.169,2.868 1.695,4.057 3.39,4.057 1.8351685,-0.021581 3.3508701,-2.8006944 3.873,-3.341 0.242,0.716 -1.603,6.682 -2.179,6.682 H 2.906 C 2.33,10.501 0.485,4.535 0.727,3.819 1.1841472,4.3152961 2.5241276,7.0768295 4.601,7.16 6.295,7.159 8.158,5.971 7.989,3.103 Z"
     style="fill:#000000" /></g>
<g
   transform="matrix(2.6486789,0,0,2.4217176,55.36089,58.115995)"
   id="layer1-7-88"><path
     id="sl-4"
     d="M 7.989,3.103 C 7.747,-0.954 0.242,-8.59 0,-10.5 c -0.242,1.909 -7.747,9.545 -7.989,13.603 -0.169,2.868 1.695,4.057 3.39,4.057 1.8351685,-0.021581 3.3508701,-2.8006944 3.873,-3.341 0.242,0.716 -1.603,6.682 -2.179,6.682 H 2.906 C 2.33,10.501 0.485,4.535 0.727,3.819 1.1841472,4.3152961 2.5241276,7.0768295 4.601,7.16 6.295,7.159 8.158,5.971 7.989,3.103 Z"
     style="fill:#000000" /></g><g
   aria-label="4"
   transform="rotate(180,0.375,0.375)"
   id="text3788-7"
   style="font-style:normal;font-weight:normal;line-height:0%;font-family:'Bitstream Vera Sans';letter-spacing:0px;word-spacing:0px;fill:#000000;fill-opacity:1;stroke:none"><path
     d="m -148.634,-215.12402 v -5.48438 h -9.9375 v -2.57812 l 10.45312,-14.84375 h 2.29688 v 14.84375 h 3.09375 v 2.57812 h -3.09375 v 5.48438 z m 0,-8.0625 v -10.32813 l -7.17188,10.32813 z"
     style="font-style:normal;font-variant:normal;font-weight:normal;font-stretch:normal;font-size:32px;line-height:1.25;font-family:Arial;-inkscape-font-specification:Arial"
     id="path35" /></g>


<g
   transform="matrix(-1.5085945,0,0,-1.3793253,150.97511,198.79408)"
   id="layer1-7-3"><path
     id="sl-1"
     d="M 7.989,3.103 C 7.747,-0.954 0.242,-8.59 0,-10.5 c -0.242,1.909 -7.747,9.545 -7.989,13.603 -0.169,2.868 1.695,4.057 3.39,4.057 1.8351685,-0.021581 3.3508701,-2.8006944 3.873,-3.341 0.242,0.716 -1.603,6.682 -2.179,6.682 H 2.906 C 2.33,10.501 0.485,4.535 0.727,3.819 1.1841472,4.3152961 2.5241276,7.0768295 4.601,7.16 6.295,7.159 8.158,5.971 7.989,3.103 Z"
     style="fill:#000000" /></g><g
   transform="matrix(-2.6486789,0,0,-2.4217176,55.40613,186.52132)"
   id="layer1-7-88-7"><path
     id="sl-4-5"
     d="M 7.989,3.103 C 7.747,-0.954 0.242,-8.59 0,-10.5 c -0.242,1.909 -7.747,9.545 -7.989,13.603 -0.169,2.868 1.695,4.057 3.39,4.057 1.8351685,-0.021581 3.3508701,-2.8006944 3.873,-3.341 0.242,0.716 -1.603,6.682 -2.179,6.682 H 2.906 C 2.33,10.501 0.485,4.535 0.727,3.819 1.1841472,4.3152961 2.5241276,7.0768295 4.601,7.16 6.295,7.159 8.158,5.971 7.989,3.103 Z"
     style="fill:#000000" /></g><g
   transform="matrix(2.6486789,0,0,2.4217176,113.438,58.10436)"
   id="layer1-7-88-1"><path
     id="sl-4-4"
     d="M 7.989,3.103 C 7.747,-0.954 0.242,-8.59 0,-10.5 c -0.242,1.909 -7.747,9.545 -7.989,13.603 -0.169,2.868 1.695,4.057 3.39,4.057 1.8351685,-0.021581 3.3508701,-2.8006944 3.873,-3.341 0.242,0.716 -1.603,6.682 -2.179,6.682 H 2.906 C 2.33,10.501 0.485,4.535 0.727,3.819 1.1841472,4.3152961 2.5241276,7.0768295 4.601,7.16 6.295,7.159 8.158,5.971 7.989,3.103 Z"
     style="fill:#000000" /></g><g
   transform="matrix(-2.6486789,0,0,-2.4217176,113.48324,186.50969)"
   id="layer1-7-88-7-9"><path
     id="sl-4-5-2"
     d="M 7.989,3.103 C 7.747,-0.954 0.242,-8.59 0,-10.5 c -0.242,1.909 -7.747,9.545 -7.989,13.603 -0.169,2.868 1.695,4.057 3.39,4.057 1.8351685,-0.021581 3.3508701,-2.8006944 3.873,-3.341 0.242,0.716 -1.603,6.682 -2.179,6.682 H 2.906 C 2.33,10.501 0.485,4.535 0.727,3.819 1.1841472,4.3152961 2.5241276,7.0768295 4.601,7.16 6.295,7.159 8.158,5.971 7.989,3.103 Z"
     style="fill:#000000" /></g></svg>
