<?xml version="1.0" encoding="UTF-8" standalone="no"?>
<svg
   xmlns:dc="http://purl.org/dc/elements/1.1/"
   xmlns:cc="http://creativecommons.org/ns#"
   xmlns:rdf="http://www.w3.org/1999/02/22-rdf-syntax-ns#"
   xmlns:svg="http://www.w3.org/2000/svg"
   xmlns="http://www.w3.org/2000/svg"
   width="168.58691pt"
   height="244.16699pt"
   viewBox="0 0 168.58691 244.16699"
   xml:space="preserve"
   id="svg2"
   version="1.1"><metadata
   id="metadata43"><rdf:RDF><cc:Work
       rdf:about=""><dc:format>image/svg+xml</dc:format><dc:type
         rdf:resource="http://purl.org/dc/dcmitype/StillImage" /><dc:title /></cc:Work></rdf:RDF></metadata><defs
   id="defs41" />
	<g
   id="Layer_x0020_1"
   style="clip-rule:nonzero;fill-rule:nonzero;stroke:#000000;stroke-miterlimit:4"
   transform="translate(0.75,0.75)">
		<path
   style="fill:#ffffff;stroke-width:2"
   d="m 166.83691,235.54785 c 0,3.77735 -3.08691,6.86914 -6.87109,6.86914 H 7.1108398 C 3.3359375,242.41699 0.25,239.3252 0.25,235.54785 V 7.1201172 C 0.25,3.3427734 3.3359375,0.25 7.1108398,0.25 H 159.96582 c 3.78418,0 6.87109,3.0927734 6.87109,6.8701172 z"
   id="path5" />
		<g
   style="stroke:none"
   id="g7">
			<g
   id="g9">
				
			</g>
			
		</g>
		<g
   id="g15">
			
		</g>
		<g
   id="g19">
			
		</g>
		<g
   style="stroke:none"
   id="g23">
			<g
   id="g25">
				
			</g>
			
		</g>
		<g
   style="stroke:none"
   id="g31">
			<g
   id="g33">
				
			</g>
			
		</g>
	</g>
<g
   aria-label="J"
   id="text3788"
   style="font-style:normal;font-weight:normal;line-height:0%;font-family:'Bitstream Vera Sans';letter-spacing:0px;word-spacing:0px;fill:#000000;fill-opacity:1;stroke:none"
   transform="translate(0.75,0.75)"><path
     d="m 11.720632,17.531848 q -0.032,-0.64 -0.032,-0.992 0.032,-0.352 0.128,-0.832 0.416,-2.144 1.888,-3.68 1.504,-1.568 3.84,-2.3359997 0.576,-0.192 1.12,-0.288 0.544,-0.128 1.216,-0.192 0.704,-0.096 1.504,-0.128 0.832,-0.032 1.92,-0.032 l -1.216,0.928 -5.312,11.8079997 q -0.64,1.44 -1.12,2.336 -0.448,0.896 -0.96,1.536 -0.512,0.64 -1.248,1.216 -0.704,0.544 -1.856,1.344 -1.312,0.896 -2.3040004,1.472 -0.96,0.608 -1.76,0.928 -0.8,0.352 -1.504,0.48 -0.672,0.16 -1.408,0.16 -0.352,0 -0.672,-0.032 -0.288,-0.032 -0.704,-0.128 l 1.696,-2.144 q 0.736,0.192 1.152,0.256 0.448,0.064 0.928,0.064 2.4,0 4.1920004,-1.92 0.384,-0.416 0.64,-0.736 0.256,-0.352 0.608,-0.992 0.352,-0.672 0.896,-1.792 0.576,-1.152 1.536,-3.136 l 0.64,-1.28 q -0.064,-0.352 -0.192,-0.512 -0.096,-0.16 -0.416,-0.416 0.512,-0.416 0.736,-0.608 0.256,-0.192 0.8,-0.576 l 3.168,-7.04 h -0.48 q -1.856,0 -3.008,0.992 -1.152,0.96 -1.536,2.848 -0.128,0.544 -0.16,1.024 -0.032,0.448 -0.064,1.28 z"
     style="font-style:italic;font-variant:normal;font-weight:bold;font-stretch:normal;font-size:32px;line-height:1.25;font-family:'URW Chancery L';-inkscape-font-specification:'LMMathSymbols9 Bold Italic'"
     id="path44" /></g>







<g
   transform="matrix(2.2711763,2.2711763,-2.0765626,2.0765626,117.8168,95.186511)"
   id="layer1-7-88"><path
     id="sl-4"
     d="M 7.989,3.103 C 7.747,-0.954 0.242,-8.59 0,-10.5 c -0.242,1.909 -7.747,9.545 -7.989,13.603 -0.169,2.868 1.695,4.057 3.39,4.057 1.8351685,-0.021581 3.3508701,-2.8006944 3.873,-3.341 0.242,0.716 -1.603,6.682 -2.179,6.682 H 2.906 C 2.33,10.501 0.485,4.535 0.727,3.819 1.1841472,4.3152961 2.5241276,7.0768295 4.601,7.16 6.295,7.159 8.158,5.971 7.989,3.103 Z"
     style="fill:#000000" /></g>

<g
   aria-label="o"
   id="text3019"
   style="font-style:normal;font-weight:normal;line-height:0%;font-family:'Bitstream Vera Sans';letter-spacing:0px;word-spacing:0px;fill:#000000;fill-opacity:1;stroke:none"
   transform="translate(0.75,0.75)"><path
     d="m 21.207751,33.268922 q 1.536,0 2.304,0.9984 0.768001,0.96 0.4608,2.496 -0.192,0.9984 -0.6528,2.188801 -0.4224,1.152 -1.0368,2.304 -0.6144,1.152 -1.344,2.2272 -0.6912,1.0368 -1.4592,1.8432 -1.3056,1.344 -4.4544,2.9184 -1.4976,0.7296 -2.4576,0.9984 -0.9216,0.3072 -1.7664,0.3072 -1.4976001,0 -2.1888001,-1.0368 -0.6912,-1.0368 -0.3456,-2.7648 0.3072,-1.4208 0.8832,-2.8416 0.6144,-1.4592 1.4208001,-2.7264 0.8064,-1.3056 1.7664,-2.342401 0.9984,-1.0752 2.0736,-1.7664 1.9584,-1.2672 3.8016,-2.0352 1.8432,-0.768 2.9952,-0.768 z m -2.4192,1.8048 q -0.9984,0 -2.1504,0.8064 -1.1136,0.8064 -2.1504,2.112 -0.9984,1.267201 -1.8048,2.880001 -0.8064,1.6128 -1.1136,3.264 -0.3456,1.6512 0.1536,2.6496 0.4992,0.96 1.6896,0.96 1.1136,0 2.2656,-0.8448 1.1904,-0.8832 2.3424,-2.5344 0.9984,-1.4208 1.6512,-2.8416 0.6912,-1.4208 0.9216,-2.6496 0.3456,-1.804801 -0.1152,-2.803201 -0.4608,-0.9984 -1.6896,-0.9984 z"
     style="font-style:italic;font-variant:normal;font-weight:bold;font-stretch:normal;font-size:38.4px;line-height:1.25;font-family:'URW Chancery L';-inkscape-font-specification:'URW Chancery L Bold Italic'"
     id="path47" /></g>



<g
   aria-label="k"
   id="text3023"
   style="font-style:normal;font-weight:normal;line-height:0%;font-family:'Bitstream Vera Sans';letter-spacing:0px;word-spacing:0px;fill:#000000;fill-opacity:1;stroke:none"
   transform="translate(0.75,0.75)"><path
     d="m 12.306555,62.400462 q 0.384,-0.8832 0.768,-1.7664 0.4224,-0.883201 0.8064,-1.651201 0.384,-0.8064 0.6912,-1.3824 0.3456,-0.6144 0.576,-0.9216 0.4992,-0.768 1.8816,-1.92 1.4208,-1.152 3.456,-2.4192 1.152001,-0.7296 1.958401,-0.9984 0.8448,-0.2688 1.92,-0.2688 0.3072,0 0.4992,0.0384 0.2304,0 0.576,0.0768 l -1.9584,2.2272 q -0.4992,-0.0768 -0.768,-0.1152 -0.2304,-0.0384 -0.5376,-0.0384 -2.073601,0 -3.456001,1.8048 -0.3072,0.384 -0.6144,0.8832 -0.3072,0.4608 -0.6912,1.2672 -0.384,0.8064 -0.96,2.0352 -0.576,1.190401 -1.3824,3.033601 l -2.6496,5.8752 5.8368,-4.416 q 0.2688,-0.192 0.5376,-0.384 0.2688,-0.2304 0.4992,-0.4608 l 0.9216,-0.7296 q 1.036801,-0.8064 1.689601,-1.1136 0.6912,-0.3072 1.4592,-0.3072 0.6528,0 1.0752,0.192 0.4608,0.1536 0.9216,0.576 l -2.5728,2.9184 q -0.3072,-0.6144 -0.6528,-0.8448 -0.3456,-0.2688 -0.8448,-0.2688 -0.5376,0 -1.113601,0.3072 -0.576,0.3072 -1.8816,1.3056 l -3.0336,2.3424 q 0.6144,2.304 1.0368,3.9168 0.4608,1.6128 0.7296,2.688 0.3072,1.0752 0.4608,1.728 0.192,0.6144 0.3072,1.0368 0.1536,0.4224 0.2304,0.6912 0.1152,0.3072 0.2304,0.6528 0.6528,1.7664 1.6512,2.688 0.998401,0.96 2.227201,0.96 1.2288,0 2.2656,-0.6528 1.0368,-0.6528 2.2656,-2.2272 l 0.192,2.7648 q -0.9984,0.7296 -2.0736,1.0368 -1.0368,0.3072 -2.3808,0.3072 -1.6128,0 -3.148801,-0.6144 -1.536,-0.576 -2.5728,-1.5744 -0.4992,-0.4608 -0.8832,-0.9984 -0.3456,-0.5376 -0.6912,-1.3056 -0.3072,-0.768 -0.6144,-1.8048 -0.2688,-1.0368 -0.6144,-2.496 -0.2304,-1.0752 -0.384,-1.728 -0.1152,-0.6912 -0.2688,-1.1904 -0.1152,-0.4992 -0.2304,-0.96 -0.1152,-0.4608 -0.2688,-1.1136 l -0.9984,0.5376 -2.8416,6.8352 q -0.2304,0.0768 -0.4608,0.1536 -0.192,0.0384 -0.4608,0.1152 l -1.0752,0.3456 q -0.3072001,0.0768 -0.5760001,0.1536 -0.2304,0.1152 -0.4224,0.192 z"
     style="font-style:italic;font-variant:normal;font-weight:bold;font-stretch:normal;font-size:38.4px;line-height:1.25;font-family:'URW Chancery L';-inkscape-font-specification:'URW Chancery L Bold Italic'"
     id="path50" /></g>



<g
   aria-label="e"
   id="text3027"
   style="font-style:normal;font-weight:normal;line-height:0%;font-family:'Bitstream Vera Sans';letter-spacing:0px;word-spacing:0px;fill:#000000;fill-opacity:1;stroke:none"
   transform="translate(0.75,0.75)"><path
     d="m 18.066556,95.198183 q -5.6064,4.6464 -9.0624005,4.6464 -1.4592,0 -2.1120001,-0.96 -0.6144,-0.9984 -0.3072,-2.688 0.2688,-1.1904 0.7296,-2.496001 0.4992001,-1.344 1.1136001,-2.5728 0.6144,-1.2672 1.344,-2.3424 0.7296005,-1.0752 1.4208005,-1.728 0.768,-0.7296 1.92,-1.4976 1.1904,-0.8064 2.3808,-1.3824 0.6912,-0.3456 1.1904,-0.4608 0.4992,-0.1536 1.1136,-0.1536 0.9984,0 1.4592,0.576 0.4992,0.5376 0.3072,1.536 -0.2688,1.344 -1.152,2.3808 -0.8448,1.0368 -2.6496,2.2272 -0.96,0.6528 -1.728,1.152 -0.768,0.4608 -1.4208,0.8832 -0.6528,0.384 -1.3056,0.768 -0.6528,0.3456 -1.3824005,0.768 -0.192,0.844801 -0.2304,1.267201 -0.0384,0.4224 -0.0384,0.8832 0.0384,0.768 0.4992005,1.2288 0.4992,0.4224 1.2288,0.4224 1.1136,0 2.688,-0.8064 1.6128,-0.8448 4.1856,-2.764801 z m -7.7568,-2.726401 q 1.728,-0.96 2.88,-1.6896 1.152,-0.768 1.8432,-1.4208 0.6912,-0.6528 1.0368,-1.2672 0.384,-0.6144 0.5376,-1.344 0.1152,-0.7296 -0.0768,-1.152 -0.192,-0.4224 -0.6528,-0.4224 -0.6528,0 -1.3824,0.576 -0.7296,0.5376 -1.4976,1.536 -0.7296,0.96 -1.4592,2.304 -0.6912,1.344 -1.2288,2.88 z"
     style="font-style:italic;font-variant:normal;font-weight:bold;font-stretch:normal;font-size:38.4px;line-height:1.25;font-family:'URW Chancery L';-inkscape-font-specification:'URW Chancery L Bold Italic'"
     id="path53" /></g>



<g
   aria-label="r"
   id="text3031"
   style="font-style:normal;font-weight:normal;line-height:0%;font-family:'Bitstream Vera Sans';letter-spacing:0px;word-spacing:0px;fill:#000000;fill-opacity:1;stroke:none"
   transform="translate(0.75,0.75)"><path
     d="m 9.6738362,112.3578 q 0.5759998,-1.2672 1.0751998,-2.4192 0.4992,-1.1904 0.576,-1.6128 0.1536,-0.768 -0.576,-0.768 -0.192,0 -0.384,0.0384 -0.1536,0.0384 -0.4607998,0.1536 -0.3072,0.1152 -0.8064,0.3456 -0.4992001,0.2304 -1.3440001,0.6144 l 0.3072,-1.0368 q 0.9984,-0.5376 2.1119999,-1.0752 1.152,-0.5376 2.112,-0.96 0.9984,-0.4608 1.728,-0.7296 0.7296,-0.3072 0.9216,-0.3072 0.192,0 0.3072,0.1152 0.1152,0.1152 0.0768,0.3072 -0.0384,0.1536 -0.1536,0.4608 -0.1152,0.2688 -0.5376,1.2288 l -0.2304,0.6144 q 0.2688,-0.1536 0.4224,-0.2688 0.192,-0.1152 0.4608,-0.2688 0.2688,-0.192 0.6528,-0.4224 0.384,-0.2688 1.0752,-0.6912 1.728001,-1.0752 2.726401,-1.0752 0.3072,0 0.576,0.0768 0.3072,0.0384 0.8064,0.2304 l -1.8816,3.648 q -0.384,-0.6528 -0.768,-0.9216 -0.384,-0.2688 -1.036801,-0.2688 -0.768,0 -1.5744,0.3072 -0.768,0.2688 -1.92,1.0368 l -5.0687999,10.944 -3.1872001,1.1136 z"
     style="font-style:italic;font-variant:normal;font-weight:bold;font-stretch:normal;font-size:38.4px;line-height:1.25;font-family:'URW Chancery L';-inkscape-font-specification:'URW Chancery L Bold Italic'"
     id="path56" /></g>



<g
   transform="matrix(2.374378,-2.374378,2.2221918,2.2221918,60.133523,96.385421)"
   id="layer1-9"><path
     style="fill:#df0000"
     id="hl"
     d="M 3.676,-9 C 0.433,-9 0,-5.523 0,-5.523 0,-5.523 -0.433,-9 -3.676,-9 -5.946,-9 -8,-7.441 -8,-4.5 -8,-0.614 -1.4208493,3.2938141 0,9 1.35201,3.2985969 8,-0.614 8,-4.5 8,-7.441 5.946,-9 3.676,-9 Z" /></g><g
   transform="matrix(-2.145754,-2.145754,2.145754,-2.145754,110.94878,306.52847)"
   id="layer1-1"><path
     id="cl"
     d="m 50.291466,22.698228 c 0,0 2.375,-1.9 2.375,-4.534 0,-1.542 -1.369,-4.102 -4.534,-4.102 -3.165,0 -4.534,2.561 -4.534,4.102 0,2.634 2.375,4.534 2.375,4.534 -2.638,-2.055 -7.341,-0.652 -7.341,3.455 0,2.056 1.68,4.318 4.318,4.318 3.165,0 4.534,-3.455 4.534,-3.455 0,0 0.402,3.938 -1.943,6.046 h 5.182 c -2.345,-2.107 -1.943,-6.046 -1.943,-6.046 0,0 1.369,3.455 4.534,3.455 2.639,0 4.318,-2.263 4.318,-4.318 0,-4.107 -4.703,-5.51 -7.341,-3.455 z"
     style="fill:#000000" /></g><g
   transform="matrix(2.235014,-2.235014,2.235014,2.235014,118.53936,156.91707)"
   id="layer1-2"><path
     style="fill:#df0000"
     id="dl"
     d="M 3.2433274,-4.7253274 C 1.1263274,-7.5893274 0,-10.5 0,-10.5 c 0,0 -1.1263274,2.9106726 -3.2433274,5.7746726 C -5.3613274,-1.8623274 -8,0 -8,0 -8,0 -5.3613274,1.8613274 -3.2433274,4.7263274 -1.1263274,7.5893274 0,10.5 0,10.5 0,10.5 1.1263274,7.5893274 3.2433274,4.7263274 5.3613274,1.8613274 8,0 8,0 8,0 5.3613274,-1.8623274 3.2433274,-4.7253274 Z" /></g>









<g
   aria-label="J"
   transform="rotate(180,0.375,0.375)"
   id="text3788-8"
   style="font-style:normal;font-weight:normal;line-height:0%;font-family:'Bitstream Vera Sans';letter-spacing:0px;word-spacing:0px;fill:#000000;fill-opacity:1;stroke:none"><path
     d="m -155.93999,-224.82595 q -0.032,-0.64 -0.032,-0.992 0.032,-0.352 0.128,-0.832 0.416,-2.144 1.888,-3.68 1.504,-1.568 3.84,-2.336 0.576,-0.192 1.12,-0.288 0.544,-0.128 1.216,-0.192 0.704,-0.096 1.504,-0.128 0.832,-0.032 1.92,-0.032 l -1.216,0.928 -5.312,11.808 q -0.64,1.44 -1.12,2.336 -0.448,0.896 -0.96,1.536 -0.512,0.64 -1.248,1.216 -0.704,0.544 -1.856,1.344 -1.312,0.896 -2.304,1.472 -0.96,0.608 -1.76,0.928 -0.8,0.352 -1.504,0.48 -0.672,0.16 -1.408,0.16 -0.352,0 -0.672,-0.032 -0.288,-0.032 -0.704,-0.128 l 1.696,-2.144 q 0.736,0.192 1.152,0.256 0.448,0.064 0.928,0.064 2.4,0 4.192,-1.92 0.384,-0.416 0.64,-0.736 0.256,-0.352 0.608,-0.992 0.352,-0.672 0.896,-1.792 0.576,-1.152 1.536,-3.136 l 0.64,-1.28 q -0.064,-0.352 -0.192,-0.512 -0.096,-0.16 -0.416,-0.416 0.512,-0.416 0.736,-0.608 0.256,-0.192 0.8,-0.576 l 3.168,-7.04 h -0.48 q -1.856,0 -3.008,0.992 -1.152,0.96 -1.536,2.848 -0.128,0.544 -0.16,1.024 -0.032,0.448 -0.064,1.28 z"
     style="font-style:italic;font-variant:normal;font-weight:bold;font-stretch:normal;font-size:32px;line-height:1.25;font-family:'URW Chancery L';-inkscape-font-specification:'LMMathSymbols9 Bold Italic'"
     id="path59" /></g>

<g
   aria-label="o"
   transform="rotate(180,0.375,0.375)"
   id="text3019-4"
   style="font-style:normal;font-weight:normal;line-height:0%;font-family:'Bitstream Vera Sans';letter-spacing:0px;word-spacing:0px;fill:#000000;fill-opacity:1;stroke:none"><path
     d="m -146.45287,-209.08887 q 1.536,0 2.304,0.9984 0.768,0.96 0.4608,2.496 -0.192,0.9984 -0.6528,2.1888 -0.4224,1.152 -1.0368,2.304 -0.6144,1.152 -1.344,2.2272 -0.6912,1.0368 -1.4592,1.8432 -1.3056,1.344 -4.4544,2.9184 -1.4976,0.7296 -2.4576,0.9984 -0.9216,0.3072 -1.7664,0.3072 -1.4976,0 -2.1888,-1.0368 -0.6912,-1.0368 -0.3456,-2.7648 0.3072,-1.4208 0.8832,-2.8416 0.6144,-1.4592 1.4208,-2.7264 0.8064,-1.3056 1.7664,-2.3424 0.9984,-1.0752 2.0736,-1.7664 1.9584,-1.2672 3.8016,-2.0352 1.8432,-0.768 2.9952,-0.768 z m -2.4192,1.8048 q -0.9984,0 -2.1504,0.8064 -1.1136,0.8064 -2.1504,2.112 -0.9984,1.2672 -1.8048,2.88 -0.8064,1.6128 -1.1136,3.264 -0.3456,1.6512 0.1536,2.6496 0.4992,0.96 1.6896,0.96 1.1136,0 2.2656,-0.8448 1.1904,-0.8832 2.3424,-2.5344 0.9984,-1.4208 1.6512,-2.8416 0.6912,-1.4208 0.9216,-2.6496 0.3456,-1.8048 -0.1152,-2.8032 -0.4608,-0.9984 -1.6896,-0.9984 z"
     style="font-style:italic;font-variant:normal;font-weight:bold;font-stretch:normal;font-size:38.4px;line-height:1.25;font-family:'URW Chancery L';-inkscape-font-specification:'URW Chancery L Bold Italic'"
     id="path62" /></g>

<g
   aria-label="k"
   transform="rotate(180,0.375,0.375)"
   id="text3023-1"
   style="font-style:normal;font-weight:normal;line-height:0%;font-family:'Bitstream Vera Sans';letter-spacing:0px;word-spacing:0px;fill:#000000;fill-opacity:1;stroke:none"><path
     d="m -155.35405,-179.95733 q 0.384,-0.8832 0.768,-1.7664 0.4224,-0.8832 0.8064,-1.6512 0.384,-0.8064 0.6912,-1.3824 0.3456,-0.6144 0.576,-0.9216 0.4992,-0.768 1.8816,-1.92 1.4208,-1.152 3.456,-2.4192 1.152,-0.7296 1.9584,-0.9984 0.8448,-0.2688 1.92,-0.2688 0.3072,0 0.4992,0.0384 0.2304,0 0.576,0.0768 l -1.9584,2.2272 q -0.4992,-0.0768 -0.768,-0.1152 -0.2304,-0.0384 -0.5376,-0.0384 -2.0736,0 -3.456,1.8048 -0.3072,0.384 -0.6144,0.8832 -0.3072,0.4608 -0.6912,1.2672 -0.384,0.8064 -0.96,2.0352 -0.576,1.1904 -1.3824,3.0336 l -2.6496,5.8752 5.8368,-4.416 q 0.2688,-0.192 0.5376,-0.384 0.2688,-0.2304 0.4992,-0.4608 l 0.9216,-0.7296 q 1.0368,-0.8064 1.6896,-1.1136 0.6912,-0.3072 1.4592,-0.3072 0.6528,0 1.0752,0.192 0.4608,0.1536 0.9216,0.576 l -2.5728,2.9184 q -0.3072,-0.6144 -0.6528,-0.8448 -0.3456,-0.2688 -0.8448,-0.2688 -0.5376,0 -1.1136,0.3072 -0.576,0.3072 -1.8816,1.3056 l -3.0336,2.3424 q 0.6144,2.304 1.0368,3.9168 0.4608,1.6128 0.7296,2.688 0.3072,1.0752 0.4608,1.728 0.192,0.6144 0.3072,1.0368 0.1536,0.4224 0.2304,0.6912 0.1152,0.3072 0.2304,0.6528 0.6528,1.7664 1.6512,2.688 0.9984,0.96 2.2272,0.96 1.2288,0 2.2656,-0.6528 1.0368,-0.6528 2.2656,-2.2272 l 0.192,2.7648 q -0.9984,0.7296 -2.0736,1.0368 -1.0368,0.3072 -2.3808,0.3072 -1.6128,0 -3.1488,-0.6144 -1.536,-0.576 -2.5728,-1.5744 -0.4992,-0.4608 -0.8832,-0.9984 -0.3456,-0.5376 -0.6912,-1.3056 -0.3072,-0.768 -0.6144,-1.8048 -0.2688,-1.0368 -0.6144,-2.496 -0.2304,-1.0752 -0.384,-1.728 -0.1152,-0.6912 -0.2688,-1.1904 -0.1152,-0.4992 -0.2304,-0.96 -0.1152,-0.4608 -0.2688,-1.1136 l -0.9984,0.5376 -2.8416,6.8352 q -0.2304,0.0768 -0.4608,0.1536 -0.192,0.0384 -0.4608,0.1152 l -1.0752,0.3456 q -0.3072,0.0768 -0.576,0.1536 -0.2304,0.1152 -0.4224,0.192 z"
     style="font-style:italic;font-variant:normal;font-weight:bold;font-stretch:normal;font-size:38.4px;line-height:1.25;font-family:'URW Chancery L';-inkscape-font-specification:'URW Chancery L Bold Italic'"
     id="path65" /></g>

<g
   aria-label="e"
   transform="rotate(180,0.375,0.375)"
   id="text3027-9"
   style="font-style:normal;font-weight:normal;line-height:0%;font-family:'Bitstream Vera Sans';letter-spacing:0px;word-spacing:0px;fill:#000000;fill-opacity:1;stroke:none"><path
     d="m -149.59405,-147.15961 q -5.6064,4.6464 -9.0624,4.6464 -1.4592,0 -2.112,-0.96 -0.6144,-0.9984 -0.3072,-2.688 0.2688,-1.1904 0.7296,-2.496 0.4992,-1.344 1.1136,-2.5728 0.6144,-1.2672 1.344,-2.3424 0.7296,-1.0752 1.4208,-1.728 0.768,-0.7296 1.92,-1.4976 1.1904,-0.8064 2.3808,-1.3824 0.6912,-0.3456 1.1904,-0.4608 0.4992,-0.1536 1.1136,-0.1536 0.9984,0 1.4592,0.576 0.4992,0.5376 0.3072,1.536 -0.2688,1.344 -1.152,2.3808 -0.8448,1.0368 -2.6496,2.2272 -0.96,0.6528 -1.728,1.152 -0.768,0.4608 -1.4208,0.8832 -0.6528,0.384 -1.3056,0.768 -0.6528,0.3456 -1.3824,0.768 -0.192,0.8448 -0.2304,1.2672 -0.0384,0.4224 -0.0384,0.8832 0.0384,0.768 0.4992,1.2288 0.4992,0.4224 1.2288,0.4224 1.1136,0 2.688,-0.8064 1.6128,-0.8448 4.1856,-2.7648 z m -7.7568,-2.7264 q 1.728,-0.96 2.88,-1.6896 1.152,-0.768 1.8432,-1.4208 0.6912,-0.6528 1.0368,-1.2672 0.384,-0.6144 0.5376,-1.344 0.1152,-0.7296 -0.0768,-1.152 -0.192,-0.4224 -0.6528,-0.4224 -0.6528,0 -1.3824,0.576 -0.7296,0.5376 -1.4976,1.536 -0.7296,0.96 -1.4592,2.304 -0.6912,1.344 -1.2288,2.88 z"
     style="font-style:italic;font-variant:normal;font-weight:bold;font-stretch:normal;font-size:38.4px;line-height:1.25;font-family:'URW Chancery L';-inkscape-font-specification:'URW Chancery L Bold Italic'"
     id="path68" /></g>

<g
   aria-label="r"
   transform="rotate(180,0.375,0.375)"
   id="text3031-0"
   style="font-style:normal;font-weight:normal;line-height:0%;font-family:'Bitstream Vera Sans';letter-spacing:0px;word-spacing:0px;fill:#000000;fill-opacity:1;stroke:none"><path
     d="m -157.98677,-129.99999 q 0.576,-1.2672 1.0752,-2.4192 0.4992,-1.1904 0.576,-1.6128 0.1536,-0.768 -0.576,-0.768 -0.192,0 -0.384,0.0384 -0.1536,0.0384 -0.4608,0.1536 -0.3072,0.1152 -0.8064,0.3456 -0.4992,0.2304 -1.344,0.6144 l 0.3072,-1.0368 q 0.9984,-0.5376 2.112,-1.0752 1.152,-0.5376 2.112,-0.96 0.9984,-0.4608 1.728,-0.7296 0.7296,-0.3072 0.9216,-0.3072 0.192,0 0.3072,0.1152 0.1152,0.1152 0.0768,0.3072 -0.0384,0.1536 -0.1536,0.4608 -0.1152,0.2688 -0.5376,1.2288 l -0.2304,0.6144 q 0.2688,-0.1536 0.4224,-0.2688 0.192,-0.1152 0.4608,-0.2688 0.2688,-0.192 0.6528,-0.4224 0.384,-0.2688 1.0752,-0.6912 1.728,-1.0752 2.7264,-1.0752 0.3072,0 0.576,0.0768 0.3072,0.0384 0.8064,0.2304 l -1.8816,3.648 q -0.384,-0.6528 -0.768,-0.9216 -0.384,-0.2688 -1.0368,-0.2688 -0.768,0 -1.5744,0.3072 -0.768,0.2688 -1.92,1.0368 l -5.0688,10.944 -3.1872,1.1136 z"
     style="font-style:italic;font-variant:normal;font-weight:bold;font-stretch:normal;font-size:38.4px;line-height:1.25;font-family:'URW Chancery L';-inkscape-font-specification:'URW Chancery L Bold Italic'"
     id="path71" /></g>

</svg>
