<?xml version="1.0" encoding="UTF-8" standalone="no"?>
<svg
   xmlns:dc="http://purl.org/dc/elements/1.1/"
   xmlns:cc="http://creativecommons.org/ns#"
   xmlns:rdf="http://www.w3.org/1999/02/22-rdf-syntax-ns#"
   xmlns:svg="http://www.w3.org/2000/svg"
   xmlns="http://www.w3.org/2000/svg"
   xmlns:xlink="http://www.w3.org/1999/xlink"
   width="168.58691pt"
   height="244.16699pt"
   viewBox="0 0 168.58691 244.16699"
   xml:space="preserve"
   id="svg2"
   version="1.1"><metadata
   id="metadata43"><rdf:RDF><cc:Work
       rdf:about=""><dc:format>image/svg+xml</dc:format><dc:type
         rdf:resource="http://purl.org/dc/dcmitype/StillImage" /><dc:title></dc:title></cc:Work></rdf:RDF></metadata><defs
   id="defs41"><radialGradient
     xlink:href="#linearGradient3773"
     id="radialGradient3781"
     cx="-0.15782039"
     cy="-8.8345356"
     fx="-0.15782039"
     fy="-8.8345356"
     r="7.9997029"
     gradientTransform="matrix(-1.5842693,-0.02349808,0.03071979,-2.4775745,-0.24856378,-26.713507)"
     gradientUnits="userSpaceOnUse" /><linearGradient
     id="linearGradient3773"><stop
       style="stop-color:#000000;stop-opacity:1;"
       offset="0"
       id="stop3775" /><stop
       style="stop-color:#000000;stop-opacity:0.64885497;"
       offset="1"
       id="stop3777" /></linearGradient><radialGradient
     xlink:href="#linearGradient3773"
     id="radialGradient3957"
     cx="-0.15782039"
     cy="-8.8345356"
     fx="-0.15782039"
     fy="-8.8345356"
     r="7.9997029"
     gradientTransform="matrix(-1.5842693,-0.02349808,0.03071979,-2.4775745,-0.24856378,-26.713507)"
     gradientUnits="userSpaceOnUse" /><linearGradient
     id="linearGradient3959"><stop
       style="stop-color:#000000;stop-opacity:1;"
       offset="0"
       id="stop3961" /><stop
       style="stop-color:#000000;stop-opacity:0.64885497;"
       offset="1"
       id="stop3963" /></linearGradient><radialGradient
     r="81.902771"
     fy="509.47577"
     fx="168.02475"
     cy="509.47577"
     cx="168.02475"
     gradientTransform="matrix(1.2565605,-0.77740644,0.33663816,0.5361257,-221.20213,359.24256)"
     gradientUnits="userSpaceOnUse"
     id="radialGradient3975"
     xlink:href="#linearGradient3784-4" /><linearGradient
     id="linearGradient3784-4"><stop
       style="stop-color:#ffffff;stop-opacity:0.4351145;"
       offset="0"
       id="stop3786-8" /><stop
       style="stop-color:#000000;stop-opacity:0;"
       offset="1"
       id="stop3788-6" /></linearGradient><filter
     color-interpolation-filters="sRGB"
     id="filter3803"
     x="-0.33068925"
     width="1.6613785"
     y="-0.16436553"
     height="1.3287311"><feGaussianBlur
       stdDeviation="14.131424"
       id="feGaussianBlur3805" /></filter><radialGradient
     xlink:href="#linearGradient3784-4-5"
     id="radialGradient3929"
     gradientUnits="userSpaceOnUse"
     gradientTransform="matrix(1.2565605,-0.77740644,0.33663816,0.5361257,-221.20213,359.24256)"
     cx="168.02475"
     cy="509.47577"
     fx="168.02475"
     fy="509.47577"
     r="81.902771" /><linearGradient
     id="linearGradient3784-4-5"><stop
       style="stop-color:#ffffff;stop-opacity:0.48854962;"
       offset="0"
       id="stop3786-8-0" /><stop
       style="stop-color:#000000;stop-opacity:0;"
       offset="1"
       id="stop3788-6-3" /></linearGradient><filter
     color-interpolation-filters="sRGB"
     id="filter3803-1"
     x="-0.33068925"
     width="1.6613785"
     y="-0.16436553"
     height="1.3287311"><feGaussianBlur
       stdDeviation="14.131424"
       id="feGaussianBlur3805-8" /></filter><radialGradient
     xlink:href="#linearGradient3784-4-1"
     id="radialGradient3927"
     gradientUnits="userSpaceOnUse"
     gradientTransform="matrix(1.2565605,-0.77740644,0.33663816,0.5361257,-221.20213,359.24256)"
     cx="168.02475"
     cy="509.47577"
     fx="168.02475"
     fy="509.47577"
     r="81.902771" /><linearGradient
     id="linearGradient3784-4-1"><stop
       style="stop-color:#ffffff;stop-opacity:0.23664123;"
       offset="0"
       id="stop3786-8-03" /><stop
       style="stop-color:#000000;stop-opacity:0;"
       offset="1"
       id="stop3788-6-6" /></linearGradient><filter
     color-interpolation-filters="sRGB"
     id="filter3803-73"
     x="-0.33068925"
     width="1.6613785"
     y="-0.16436553"
     height="1.3287311"><feGaussianBlur
       stdDeviation="14.131424"
       id="feGaussianBlur3805-2" /></filter><radialGradient
     r="7.9997029"
     fy="-8.8345356"
     fx="-0.15782039"
     cy="-8.8345356"
     cx="-0.15782039"
     gradientTransform="matrix(-1.5842693,-0.02349808,0.03071979,-2.4775745,-0.24856378,-26.713507)"
     gradientUnits="userSpaceOnUse"
     id="radialGradient3990"
     xlink:href="#linearGradient3773" /><radialGradient
     xlink:href="#linearGradient3784-4"
     id="radialGradient3161"
     gradientUnits="userSpaceOnUse"
     gradientTransform="matrix(1.2565605,-0.77740644,0.33663816,0.5361257,-221.20213,359.24256)"
     cx="168.02475"
     cy="509.47577"
     fx="168.02475"
     fy="509.47577"
     r="81.902771" /><radialGradient
     xlink:href="#linearGradient3784-4-5"
     id="radialGradient3163"
     gradientUnits="userSpaceOnUse"
     gradientTransform="matrix(1.2565605,-0.77740644,0.33663816,0.5361257,-221.20213,359.24256)"
     cx="168.02475"
     cy="509.47577"
     fx="168.02475"
     fy="509.47577"
     r="81.902771" /><radialGradient
     xlink:href="#linearGradient3784-4-1"
     id="radialGradient3165"
     gradientUnits="userSpaceOnUse"
     gradientTransform="matrix(1.2565605,-0.77740644,0.33663816,0.5361257,-221.20213,359.24256)"
     cx="168.02475"
     cy="509.47577"
     fx="168.02475"
     fy="509.47577"
     r="81.902771" /></defs>
	<g
   id="Layer_x0020_1"
   style="clip-rule:nonzero;fill-rule:nonzero;stroke:#000000;stroke-miterlimit:4"
   transform="translate(0.75,0.75)">
		<path
   style="fill:#ffffff;stroke-width:2"
   d="m 166.83691,235.54785 c 0,3.77735 -3.08691,6.86914 -6.87109,6.86914 H 7.1108398 C 3.3359375,242.41699 0.25,239.3252 0.25,235.54785 V 7.1201172 C 0.25,3.3427734 3.3359375,0.25 7.1108398,0.25 H 159.96582 c 3.78418,0 6.87109,3.0927734 6.87109,6.8701172 z"
   id="path5" />
		<g
   style="stroke:none"
   id="g7">
			<g
   id="g9">
				
			</g>
			
		</g>
		<g
   id="g15">
			
		</g>
		<g
   id="g19">
			
		</g>
		<g
   style="stroke:none"
   id="g23">
			<g
   id="g25">
				
			</g>
			
		</g>
		<g
   style="stroke:none"
   id="g31">
			<g
   id="g33">
				
			</g>
			
		</g>
	</g>


<g
   transform="matrix(0.19861112,0,0,0.19861112,10.833458,16.178884)"
   id="g3886"><g
     style="fill:url(#radialGradient3781);fill-opacity:1"
     id="layer1-7-1"
     transform="matrix(31.754082,0,0,29.033123,371.73772,526.70948)"><path
       style="fill:url(#radialGradient3990);fill-opacity:1"
       d="M 7.989,3.103 C 7.747,-0.954 0.242,-8.59 0,-10.5 c -0.242,1.909 -7.747,9.545 -7.989,13.603 -0.169,2.868 1.695,4.057 3.39,4.057 1.8351685,-0.021581 3.3508701,-2.8006944 3.873,-3.341 0.242,0.716 -1.603,6.682 -2.179,6.682 H 2.906 C 2.33,10.501 0.485,4.535 0.727,3.819 1.1841472,4.3152961 2.5241276,7.0768295 4.601,7.16 6.295,7.159 8.158,5.971 7.989,3.103 Z"
       id="sl-5" /></g><path
     transform="matrix(1.6424579,-1.0823671,1.3447782,1.5795529,-783.50446,-14.751674)"
     id="path3762-6"
     d="m 122.35696,574.3828 c 0,0 -13.12321,-65.06668 17.80149,-92.97385 34.76052,-31.36871 150.11131,-71.19514 150.11131,-71.19514 0,0 -81.65171,84.60419 -110.11131,108.338 -27.21033,22.69199 -57.80149,55.83099 -57.80149,55.83099 z"
     style="fill:url(#radialGradient3161);fill-opacity:1;stroke:none;filter:url(#filter3803)" /><path
     transform="matrix(2.4895276,-0.12376278,1.1284583,2.8922395,-742.11602,-945.22788)"
     id="path3762-6-0"
     d="m 122.35696,574.3828 c 0,0 -13.12321,-65.06668 17.80149,-92.97385 34.76052,-31.36871 150.11131,-71.19514 150.11131,-71.19514 0,0 -81.65171,84.60419 -110.11131,108.338 -27.21033,22.69199 -57.80149,55.83099 -57.80149,55.83099 z"
     style="fill:url(#radialGradient3163);fill-opacity:1;stroke:none;filter:url(#filter3803-1)" /><path
     transform="matrix(1.9426966,-0.30840977,0.57340172,1.9936465,-290.37789,-568.34554)"
     id="path3762-6-2"
     d="m 122.35696,574.3828 c 0,0 -13.12321,-65.06668 17.80149,-92.97385 34.76052,-31.36871 150.11131,-71.19514 150.11131,-71.19514 0,0 -81.65171,84.60419 -110.11131,108.338 -27.21033,22.69199 -57.80149,55.83099 -57.80149,55.83099 z"
     style="fill:url(#radialGradient3165);fill-opacity:1;stroke:none;filter:url(#filter3803-73)" /><path
     id="rect3865"
     d="M 19.993242,106.65013 V 960.93134 H 697.14954 V 106.65013 Z M 371.74324,221.86888 c 7.6845,55.45326 245.9718,277.15012 253.6563,394.93746 5.3664,83.267 -53.7711,117.7523 -107.5625,117.7813 -65.9492,-2.4147 -108.515,-82.591 -123.0313,-97 -7.6845,20.7877 50.8972,194 69.1875,194 h -184.5 c 18.2904,0 76.872,-173.2123 69.1875,-194 -16.5797,15.6867 -64.7259,96.3734 -123,97 -53.8231,0 -112.9914,-34.5143 -107.625,-117.7813 7.6845,-117.81637 246.003,-339.51323 253.6875,-394.93746 z"
     style="fill:#fffeff;fill-opacity:1;fill-rule:nonzero;stroke:none" /></g><g
   aria-label="Q"
   transform="rotate(180,0.375,0.375)"
   id="text3788-2"
   style="font-style:normal;font-weight:normal;line-height:0%;font-family:'Bitstream Vera Sans';letter-spacing:0px;word-spacing:0px;fill:#000000;fill-opacity:1;stroke:none"><path
     d="m -143.17192,-217.31737 q 2.10937,1.45313 3.89062,2.125 l -0.89062,2.10938 q -2.46875,-0.89063 -4.92188,-2.8125 -2.54687,1.42187 -5.625,1.42187 -3.10937,0 -5.64062,-1.5 -2.53125,-1.5 -3.90625,-4.21875 -1.35938,-2.71875 -1.35938,-6.125 0,-3.39062 1.375,-6.17187 1.375,-2.78125 3.90625,-4.23438 2.54688,-1.45312 5.6875,-1.45312 3.17188,0 5.71875,1.51562 2.54688,1.5 3.875,4.21875 1.34375,2.70313 1.34375,6.10938 0,2.82812 -0.85937,5.09375 -0.85938,2.25 -2.59375,3.92187 z m -6.67188,-3.875 q 2.625,0.73438 4.32813,2.1875 2.67187,-2.4375 2.67187,-7.32812 0,-2.78125 -0.95312,-4.85938 -0.9375,-2.07812 -2.76563,-3.21875 -1.8125,-1.15625 -4.07812,-1.15625 -3.39063,0 -5.625,2.32813 -2.23438,2.3125 -2.23438,6.92187 0,4.46875 2.20313,6.85938 2.21875,2.39062 5.65625,2.39062 1.625,0 3.0625,-0.60937 -1.42188,-0.92188 -3,-1.3125 z"
     style="font-style:normal;font-variant:normal;font-weight:normal;font-stretch:normal;font-size:32px;line-height:1.25;font-family:Arial;-inkscape-font-specification:Arial"
     id="path61" /></g>

<g
   transform="matrix(-1.5085945,0,0,-1.3793253,150.97472,198.79381)"
   id="layer1-7-8"><path
     id="sl-0"
     d="M 7.989,3.103 C 7.747,-0.954 0.242,-8.59 0,-10.5 c -0.242,1.909 -7.747,9.545 -7.989,13.603 -0.169,2.868 1.695,4.057 3.39,4.057 1.8351685,-0.021581 3.3508701,-2.8006944 3.873,-3.341 0.242,0.716 -1.603,6.682 -2.179,6.682 H 2.906 C 2.33,10.501 0.485,4.535 0.727,3.819 1.1841472,4.3152961 2.5241276,7.0768295 4.601,7.16 6.295,7.159 8.158,5.971 7.989,3.103 Z"
     style="fill:#000000" /></g><g
   aria-label="Q"
   id="text3788"
   style="font-style:normal;font-weight:normal;line-height:0%;font-family:'Bitstream Vera Sans';letter-spacing:0px;word-spacing:0px;fill:#000000;fill-opacity:1;stroke:none"
   transform="translate(0.75,0.75)"><path
     d="m 24.911593,25.792603 q 2.109375,1.453125 3.890625,2.125 l -0.890625,2.109375 q -2.46875,-0.890625 -4.921875,-2.8125 -2.546875,1.421875 -5.625,1.421875 -3.109375,0 -5.640625,-1.5 -2.5312496,-1.5 -3.9062496,-4.21875 -1.359375,-2.71875 -1.359375,-6.125 0,-3.390625 1.375,-6.171875 1.375,-2.7812505 3.9062496,-4.2343755 2.546875,-1.453125 5.6875,-1.453125 3.171875,0 5.71875,1.515625 2.546875,1.5 3.875,4.2187505 1.34375,2.703125 1.34375,6.109375 0,2.828125 -0.859375,5.09375 -0.859375,2.25 -2.59375,3.921875 z m -6.671875,-3.875 q 2.625,0.734375 4.328125,2.1875 2.671875,-2.4375 2.671875,-7.328125 0,-2.78125 -0.953125,-4.859375 -0.9375,-2.0781255 -2.765625,-3.2187505 -1.8125,-1.15625 -4.078125,-1.15625 -3.390625,0 -5.625,2.328125 -2.2343746,2.3125005 -2.2343746,6.9218755 0,4.46875 2.2031246,6.859375 2.21875,2.390625 5.65625,2.390625 1.625,0 3.0625,-0.609375 -1.421875,-0.921875 -3,-1.3125 z"
     style="font-style:normal;font-variant:normal;font-weight:normal;font-stretch:normal;font-size:32px;line-height:1.25;font-family:Arial;-inkscape-font-specification:Arial"
     id="path64" /></g>

<g
   transform="matrix(1.5085945,0,0,1.3793253,17.679041,45.816155)"
   id="layer1-7"><path
     id="sl"
     d="M 7.989,3.103 C 7.747,-0.954 0.242,-8.59 0,-10.5 c -0.242,1.909 -7.747,9.545 -7.989,13.603 -0.169,2.868 1.695,4.057 3.39,4.057 1.8351685,-0.021581 3.3508701,-2.8006944 3.873,-3.341 0.242,0.716 -1.603,6.682 -2.179,6.682 H 2.906 C 2.33,10.501 0.485,4.535 0.727,3.819 1.1841472,4.3152961 2.5241276,7.0768295 4.601,7.16 6.295,7.159 8.158,5.971 7.989,3.103 Z"
     style="fill:#000000" /></g></svg>
