<?xml version="1.0" encoding="UTF-8" standalone="no"?>
<svg
   xmlns:dc="http://purl.org/dc/elements/1.1/"
   xmlns:cc="http://creativecommons.org/ns#"
   xmlns:rdf="http://www.w3.org/1999/02/22-rdf-syntax-ns#"
   xmlns:svg="http://www.w3.org/2000/svg"
   xmlns="http://www.w3.org/2000/svg"
   xmlns:xlink="http://www.w3.org/1999/xlink"
   width="168.58691pt"
   height="244.16699pt"
   viewBox="0 0 168.58691 244.16699"
   xml:space="preserve"
   id="svg2"
   version="1.1"><metadata
   id="metadata43"><rdf:RDF><cc:Work
       rdf:about=""><dc:format>image/svg+xml</dc:format><dc:type
         rdf:resource="http://purl.org/dc/dcmitype/StillImage" /><dc:title /></cc:Work></rdf:RDF></metadata><defs
   id="defs41"><radialGradient
     xlink:href="#linearGradient2984"
     id="radialGradient3760"
     cx="48.231091"
     cy="18.137882"
     fx="48.231091"
     fy="18.137882"
     r="9.5"
     gradientUnits="userSpaceOnUse"
     gradientTransform="matrix(-1.5605256,0.01828294,-0.02684055,-2.2909528,123.98377,58.809108)" /><linearGradient
     id="linearGradient2984"><stop
       style="stop-color:#000000;stop-opacity:1;"
       offset="0"
       id="stop2986" /><stop
       style="stop-color:#000000;stop-opacity:0.65648854;"
       offset="1"
       id="stop2988" /></linearGradient><radialGradient
     xlink:href="#linearGradient3784"
     id="radialGradient3792"
     cx="171.48665"
     cy="511.22299"
     fx="171.48665"
     fy="511.22299"
     r="81.902771"
     gradientTransform="matrix(1.1529891,-0.67391547,0.39482025,0.67549043,-233.63262,270.40076)"
     gradientUnits="userSpaceOnUse" /><linearGradient
     id="linearGradient3784"><stop
       style="stop-color:#ffffff;stop-opacity:0.53435117;"
       offset="0"
       id="stop3786" /><stop
       style="stop-color:#000000;stop-opacity:0;"
       offset="1"
       id="stop3788" /></linearGradient><filter
     color-interpolation-filters="sRGB"
     id="filter3834"
     x="-0.13934441"
     width="1.2786888"
     y="-0.16242018"
     height="1.3248404"><feGaussianBlur
       stdDeviation="9.5105772"
       id="feGaussianBlur3836" /></filter><radialGradient
     r="81.902771"
     fy="511.22299"
     fx="171.48665"
     cy="511.22299"
     cx="171.48665"
     gradientTransform="matrix(1.1529891,-0.67391547,0.39482025,0.67549043,-233.63262,270.40076)"
     gradientUnits="userSpaceOnUse"
     id="radialGradient3855"
     xlink:href="#linearGradient3784-4" /><linearGradient
     id="linearGradient3784-4"><stop
       style="stop-color:#ffffff;stop-opacity:0.51908398;"
       offset="0"
       id="stop3786-8" /><stop
       style="stop-color:#000000;stop-opacity:0;"
       offset="1"
       id="stop3788-6" /></linearGradient><filter
     color-interpolation-filters="sRGB"
     id="filter3834-6"
     x="-0.13934441"
     width="1.2786888"
     y="-0.16242018"
     height="1.3248404"><feGaussianBlur
       stdDeviation="9.5105772"
       id="feGaussianBlur3836-6" /></filter><radialGradient
     r="81.902771"
     fy="461.84113"
     fx="181.69392"
     cy="461.84113"
     cx="181.69392"
     gradientTransform="matrix(1.1529891,-0.67391547,0.39482025,0.67549043,-233.63262,270.40076)"
     gradientUnits="userSpaceOnUse"
     id="radialGradient3916"
     xlink:href="#linearGradient3784-3" /><linearGradient
     id="linearGradient3784-3"><stop
       style="stop-color:#ffffff;stop-opacity:0.70229006;"
       offset="0"
       id="stop3786-86" /><stop
       style="stop-color:#000000;stop-opacity:0;"
       offset="1"
       id="stop3788-2" /></linearGradient><filter
     color-interpolation-filters="sRGB"
     id="filter3834-7"
     x="-0.13934441"
     width="1.2786888"
     y="-0.16242018"
     height="1.3248404"><feGaussianBlur
       stdDeviation="9.5105772"
       id="feGaussianBlur3836-0" /></filter></defs>
	<g
   id="Layer_x0020_1"
   style="clip-rule:nonzero;fill-rule:nonzero;stroke:#000000;stroke-miterlimit:4"
   transform="translate(0.75,0.75)">
		<path
   style="fill:#ffffff;stroke-width:2"
   d="m 166.83691,235.54785 c 0,3.77735 -3.08691,6.86914 -6.87109,6.86914 H 7.1108398 C 3.3359375,242.41699 0.25,239.3252 0.25,235.54785 V 7.1201172 C 0.25,3.3427734 3.3359375,0.25 7.1108398,0.25 H 159.96582 c 3.78418,0 6.87109,3.0927734 6.87109,6.8701172 z"
   id="path5" />
		<g
   style="stroke:none"
   id="g7">
			<g
   id="g9">
				
			</g>
			
		</g>
		<g
   id="g15">
			
		</g>
		<g
   id="g19">
			
		</g>
		<g
   style="stroke:none"
   id="g23">
			<g
   id="g25">
				
			</g>
			
		</g>
		<g
   style="stroke:none"
   id="g31">
			<g
   id="g33">
				
			</g>
			
		</g>
	</g>
<g
   aria-label="Q"
   id="text3788"
   style="font-style:normal;font-weight:normal;line-height:0%;font-family:'Bitstream Vera Sans';letter-spacing:0px;word-spacing:0px;fill:#000000;fill-opacity:1;stroke:none"
   transform="translate(0.75,0.75)"><path
     d="m 24.938671,25.095284 q 2.109375,1.453125 3.890625,2.125 l -0.890625,2.109375 q -2.46875,-0.890625 -4.921875,-2.8125 -2.546875,1.421875 -5.625,1.421875 -3.109375,0 -5.640625,-1.5 -2.5312504,-1.5 -3.9062504,-4.21875 -1.359375,-2.71875 -1.359375,-6.125 0,-3.390625 1.375,-6.1718755 1.375,-2.78125 3.9062504,-4.234375 2.546875,-1.453125 5.6875,-1.453125 3.171875,0 5.71875,1.515625 2.546875,1.5 3.875,4.21875 1.34375,2.7031255 1.34375,6.1093755 0,2.828125 -0.859375,5.09375 -0.859375,2.25 -2.59375,3.921875 z m -6.671875,-3.875 q 2.625,0.734375 4.328125,2.1875 2.671875,-2.4375 2.671875,-7.328125 0,-2.78125 -0.953125,-4.859375 -0.9375,-2.0781255 -2.765625,-3.2187505 -1.8125,-1.15625 -4.078125,-1.15625 -3.390625,0 -5.625,2.328125 -2.2343754,2.3125005 -2.2343754,6.9218755 0,4.46875 2.2031254,6.859375 2.21875,2.390625 5.65625,2.390625 1.625,0 3.0625,-0.609375 -1.421875,-0.921875 -3,-1.3125 z"
     style="font-style:normal;font-variant:normal;font-weight:normal;font-stretch:normal;font-size:32px;line-height:1.25;font-family:Arial;-inkscape-font-specification:Arial"
     id="path53" /></g>



<g
   transform="matrix(0.20614599,0,0,0.20614599,9.6205463,17.262759)"
   id="g3804"><g
     id="layer1-1"
     transform="matrix(28.969925,0,0,28.969925,-1031.5368,-187.37665)"><path
       style="fill:url(#radialGradient3760);fill-opacity:1"
       d="m 50.291466,22.698228 c 0,0 2.375,-1.9 2.375,-4.534 0,-1.542 -1.369,-4.102 -4.534,-4.102 -3.165,0 -4.534,2.561 -4.534,4.102 0,2.634 2.375,4.534 2.375,4.534 -2.638,-2.055 -7.341,-0.652 -7.341,3.455 0,2.056 1.68,4.318 4.318,4.318 3.165,0 4.534,-3.455 4.534,-3.455 0,0 0.402,3.938 -1.943,6.046 h 5.182 c -2.345,-2.107 -1.943,-6.046 -1.943,-6.046 0,0 1.369,3.455 4.534,3.455 2.639,0 4.318,-2.263 4.318,-4.318 0,-4.107 -4.703,-5.51 -7.341,-3.455 z"
       id="cl" /></g><path
     transform="matrix(1.1091261,0,0,1.2071687,-37.349149,-111.34227)"
     id="path3762"
     d="m 117.3013,604.26609 c 0,0 -8.06755,-94.94997 22.85715,-122.85714 34.76052,-31.36871 140,-11.42857 140,-11.42857 0,0 -71.5404,24.83762 -100,48.57143 -27.21033,22.69199 -62.85715,85.71428 -62.85715,85.71428 z"
     style="fill:url(#radialGradient3792);fill-opacity:1;stroke:none;filter:url(#filter3834)" /><path
     transform="matrix(1.1091261,0,0,1.2071687,117.2523,-332.26545)"
     id="path3762-6"
     d="m 117.3013,604.26609 c 0,0 -8.06755,-94.94997 22.85715,-122.85714 34.76052,-31.36871 140,-11.42857 140,-11.42857 0,0 -71.5404,24.83762 -100,48.57143 -27.21033,22.69199 -62.85715,85.71428 -62.85715,85.71428 z"
     style="fill:url(#radialGradient3855);fill-opacity:1;stroke:none;filter:url(#filter3834-6)" /><path
     transform="matrix(1.1420384,0.7029084,-0.84188482,1.367838,729.37187,-305.07466)"
     id="path3762-7"
     d="m 117.3013,604.26609 c 0,0 -8.06755,-94.94997 22.85715,-122.85714 34.76052,-31.36871 140,-11.42857 140,-11.42857 0,0 -71.5404,24.83762 -100,48.57143 -27.21033,22.69199 -62.85715,85.71428 -62.85715,85.71428 z"
     style="fill:url(#radialGradient3916);fill-opacity:1;stroke:none;filter:url(#filter3834-7)" /><path
     id="rect3015"
     d="M 28.355532,122.02522 V 856.30647 H 695.51178 V 122.02522 Z m 334.281258,97.625 c 91.68979,0 131.37499,74.17213 131.37499,118.84375 0,76.30678 -68.8125,131.34375 -68.8125,131.34375 76.42266,-59.5332 212.65625,-18.88573 212.65625,100.09375 0,59.5332 -48.64211,125.09375 -125.09375,125.09375 -91.68982,0 -131.34374,-100.09375 -131.34374,-100.09375 0,0 -11.65322,114.11662 56.28124,175.15625 H 287.57429 c 67.93447,-61.0686 56.3125,-175.15625 56.3125,-175.15625 0,0 -39.65394,100.09375 -131.34375,100.09375 -76.42266,0 -125.093758,-65.53158 -125.093758,-125.09375 0,-118.97948 136.233598,-159.62695 212.656258,-100.09375 0,0 -68.8125,-55.03697 -68.8125,-131.34375 0,-44.64265 39.65394,-118.84375 131.34375,-118.84375 z"
     style="fill:#fffeff;fill-opacity:1;fill-rule:nonzero;stroke:none" /></g><g
   transform="matrix(1.4856506,0,0,1.4856506,-53.274661,10.768072)"
   id="layer1-1-4"><path
     id="cl-9"
     d="m 50.291466,22.698228 c 0,0 2.375,-1.9 2.375,-4.534 0,-1.542 -1.369,-4.102 -4.534,-4.102 -3.165,0 -4.534,2.561 -4.534,4.102 0,2.634 2.375,4.534 2.375,4.534 -2.638,-2.055 -7.341,-0.652 -7.341,3.455 0,2.056 1.68,4.318 4.318,4.318 3.165,0 4.534,-3.455 4.534,-3.455 0,0 0.402,3.938 -1.943,6.046 h 5.182 c -2.345,-2.107 -1.943,-6.046 -1.943,-6.046 0,0 1.369,3.455 4.534,3.455 2.639,0 4.318,-2.263 4.318,-4.318 0,-4.107 -4.703,-5.51 -7.341,-3.455 z"
     style="fill:#000000" /></g><g
   aria-label="Q"
   transform="rotate(180,0.375,0.375)"
   id="text3788-8"
   style="font-style:normal;font-weight:normal;line-height:0%;font-family:'Bitstream Vera Sans';letter-spacing:0px;word-spacing:0px;fill:#000000;fill-opacity:1;stroke:none"><path
     d="m -142.23584,-216.91972 q 2.10938,1.45312 3.89063,2.125 l -0.89063,2.10937 q -2.46875,-0.89062 -4.92187,-2.8125 -2.54688,1.42188 -5.625,1.42188 -3.10938,0 -5.64063,-1.5 -2.53125,-1.5 -3.90625,-4.21875 -1.35937,-2.71875 -1.35937,-6.125 0,-3.39063 1.375,-6.17188 1.375,-2.78125 3.90625,-4.23437 2.54687,-1.45313 5.6875,-1.45313 3.17187,0 5.71875,1.51563 2.54687,1.5 3.875,4.21875 1.34375,2.70312 1.34375,6.10937 0,2.82813 -0.85938,5.09375 -0.85937,2.25 -2.59375,3.92188 z m -6.67187,-3.875 q 2.625,0.73437 4.32812,2.1875 2.67188,-2.4375 2.67188,-7.32813 0,-2.78125 -0.95313,-4.85937 -0.9375,-2.07813 -2.76562,-3.21875 -1.8125,-1.15625 -4.07813,-1.15625 -3.39062,0 -5.625,2.32812 -2.23437,2.3125 -2.23437,6.92188 0,4.46875 2.20312,6.85937 2.21875,2.39063 5.65625,2.39063 1.625,0 3.0625,-0.60938 -1.42187,-0.92187 -3,-1.3125 z"
     style="font-style:normal;font-variant:normal;font-weight:normal;font-stretch:normal;font-size:32px;line-height:1.25;font-family:Arial;-inkscape-font-specification:Arial"
     id="path56" /></g>

<g
   transform="matrix(-1.4856506,0,0,-1.4856506,221.94916,233.21182)"
   id="layer1-1-4-1"><path
     id="cl-9-7"
     d="m 50.291466,22.698228 c 0,0 2.375,-1.9 2.375,-4.534 0,-1.542 -1.369,-4.102 -4.534,-4.102 -3.165,0 -4.534,2.561 -4.534,4.102 0,2.634 2.375,4.534 2.375,4.534 -2.638,-2.055 -7.341,-0.652 -7.341,3.455 0,2.056 1.68,4.318 4.318,4.318 3.165,0 4.534,-3.455 4.534,-3.455 0,0 0.402,3.938 -1.943,6.046 h 5.182 c -2.345,-2.107 -1.943,-6.046 -1.943,-6.046 0,0 1.369,3.455 4.534,3.455 2.639,0 4.318,-2.263 4.318,-4.318 0,-4.107 -4.703,-5.51 -7.341,-3.455 z"
     style="fill:#000000" /></g></svg>
